<svg xmlns="http://www.w3.org/2000/svg" xmlns:xlink="http://www.w3.org/1999/xlink" width="500" zoomAndPan="magnify" viewBox="0 0 375 374.999991" height="500" preserveAspectRatio="xMidYMid meet" version="1.0"><defs><g/><clipPath id="356265b79a"><path d="M 152.738281 154.695312 L 217.238281 154.695312 L 217.238281 219.195312 L 152.738281 219.195312 Z M 152.738281 154.695312 " clip-rule="nonzero"/></clipPath><clipPath id="a6b45033a8"><path d="M 164 154.695312 L 217.238281 154.695312 L 217.238281 217 L 164 217 Z M 164 154.695312 " clip-rule="nonzero"/></clipPath><clipPath id="0049a3d224"><path d="M 174 176 L 217.238281 176 L 217.238281 219.195312 L 174 219.195312 Z M 174 176 " clip-rule="nonzero"/></clipPath><clipPath id="7802ea047f"><path d="M 170 172 L 217.238281 172 L 217.238281 219.195312 L 170 219.195312 Z M 170 172 " clip-rule="nonzero"/></clipPath><clipPath id="cc69a74240"><path d="M 110.480469 111.078125 L 243.980469 111.078125 L 243.980469 184.578125 L 110.480469 184.578125 Z M 110.480469 111.078125 " clip-rule="nonzero"/></clipPath></defs><rect x="-37.5" width="450" fill="#ffffff" y="-37.499999" height="449.999989" fill-opacity="1"/><rect x="-37.5" width="450" fill="#ffffff" y="-37.499999" height="449.999989" fill-opacity="1"/><rect x="-37.5" width="450" fill="#f7f7fa" y="-37.499999" height="449.999989" fill-opacity="1"/><g clip-path="url(#356265b79a)"><path stroke-linecap="butt" transform="matrix(0.885989, 0, 0, 0.885989, 152.737245, 154.696879)" fill="none" stroke-linejoin="miter" d="M 53.798752 27.39964 C 53.798752 28.263787 53.759072 29.127934 53.670893 29.987673 C 53.587124 30.847411 53.459265 31.702741 53.291727 32.549253 C 53.124188 33.400173 52.91256 34.237867 52.661252 35.062334 C 52.414353 35.89121 52.123364 36.702451 51.788287 37.504873 C 51.457618 38.302887 51.091678 39.083265 50.681649 39.846007 C 50.276029 40.608749 49.830728 41.349447 49.350157 42.0681 C 48.869585 42.786753 48.358151 43.478953 47.807036 44.149108 C 47.260331 44.814854 46.678354 45.454147 46.065515 46.066986 C 45.457085 46.679826 44.817792 47.257393 44.147637 47.808508 C 43.477482 48.355213 42.785282 48.871056 42.066629 49.351628 C 41.347976 49.8322 40.607278 50.273091 39.844536 50.68312 C 39.081793 51.088741 38.301415 51.45909 37.503402 51.789758 C 36.705388 52.120427 35.889739 52.411415 35.065272 52.662723 C 34.236396 52.914032 33.398702 53.125659 32.55219 53.293198 C 31.701269 53.460737 30.84594 53.588596 29.986201 53.672365 C 29.126463 53.756134 28.266725 53.800223 27.398168 53.800223 C 26.534021 53.800223 25.674282 53.756134 24.814544 53.672365 C 23.950397 53.588596 23.099476 53.460737 22.248555 53.293198 C 21.402044 53.125659 20.56435 52.914032 19.735474 52.662723 C 18.911007 52.411415 18.095357 52.120427 17.297344 51.789758 C 16.49933 51.45909 15.718952 51.088741 14.95621 50.68312 C 14.193467 50.273091 13.45277 49.8322 12.734117 49.351628 C 12.015463 48.871056 11.318855 48.355213 10.653109 47.808508 C 9.982954 47.257393 9.343661 46.679826 8.730822 46.066986 C 8.122391 45.454147 7.540415 44.814854 6.993709 44.149108 C 6.442595 43.478953 5.931161 42.786753 5.450589 42.0681 C 4.970017 41.349447 4.524717 40.608749 4.119096 39.846007 C 3.709067 39.083265 3.338718 38.302887 3.00805 37.504873 C 2.677381 36.702451 2.386393 35.89121 2.135085 35.062334 C 1.883776 34.237867 1.676557 33.400173 1.509019 32.549253 C 1.337071 31.702741 1.213621 30.847411 1.125443 29.987673 C 1.041674 29.127934 1.001993 28.263787 1.001993 27.39964 C 1.001993 26.535492 1.041674 25.671345 1.125443 24.811607 C 1.213621 23.951868 1.337071 23.096539 1.509019 22.250027 C 1.676557 21.403515 1.883776 20.565821 2.135085 19.736945 C 2.386393 18.908069 2.677381 18.096829 3.00805 17.298815 C 3.338718 16.496393 3.709067 15.716015 4.119096 14.953272 C 4.524717 14.19053 4.970017 13.449832 5.450589 12.731179 C 5.931161 12.012526 6.442595 11.320326 6.993709 10.650171 C 7.540415 9.984425 8.122391 9.345132 8.730822 8.732293 C 9.343661 8.119454 9.982954 7.541886 10.653109 6.990772 C 11.318855 6.444066 12.015463 5.928223 12.734117 5.447651 C 13.45277 4.96708 14.193467 4.526188 14.95621 4.116159 C 15.718952 3.710539 16.49933 3.34019 17.297344 3.009521 C 18.095357 2.678853 18.911007 2.387864 19.735474 2.136556 C 20.56435 1.885248 21.402044 1.678029 22.248555 1.506081 C 23.099476 1.338543 23.950397 1.210684 24.814544 1.126915 C 25.674282 1.043145 26.534021 0.999056 27.398168 0.999056 C 28.266725 0.999056 29.126463 1.043145 29.986201 1.126915 C 30.84594 1.210684 31.701269 1.338543 32.55219 1.506081 C 33.398702 1.678029 34.236396 1.885248 35.065272 2.136556 C 35.889739 2.387864 36.705388 2.678853 37.503402 3.009521 C 38.301415 3.34019 39.081793 3.710539 39.844536 4.116159 C 40.607278 4.526188 41.347976 4.96708 42.066629 5.447651 C 42.785282 5.928223 43.477482 6.444066 44.147637 6.990772 C 44.817792 7.541886 45.457085 8.119454 46.065515 8.732293 C 46.678354 9.345132 47.260331 9.984425 47.807036 10.650171 C 48.358151 11.320326 48.869585 12.012526 49.350157 12.731179 C 49.830728 13.449832 50.276029 14.19053 50.681649 14.953272 C 51.091678 15.716015 51.457618 16.496393 51.788287 17.298815 C 52.123364 18.096829 52.414353 18.908069 52.661252 19.736945 C 52.91256 20.565821 53.124188 21.403515 53.291727 22.250027 C 53.459265 23.096539 53.587124 23.951868 53.670893 24.811607 C 53.759072 25.671345 53.798752 26.535492 53.798752 27.39964 Z M 53.798752 27.39964 " stroke="#000000" stroke-width="2" stroke-opacity="1" stroke-miterlimit="10"/></g><g clip-path="url(#a6b45033a8)"><path stroke-linecap="butt" transform="matrix(0.885989, 0, 0, 0.885989, 152.737245, 154.696879)" fill="none" stroke-linejoin="miter" d="M 41.400883 13.401334 C 49.098848 21.0993 49.098848 33.699979 41.400883 41.397945 " stroke="#000000" stroke-width="2" stroke-opacity="1" stroke-miterlimit="10"/></g><g clip-path="url(#0049a3d224)"><path stroke-linecap="butt" transform="matrix(0.885989, 0, 0, 0.885989, 152.737245, 154.696879)" fill="none" stroke-linejoin="miter" d="M 72.100159 72.10163 L 52.498122 52.499593 " stroke="#000000" stroke-width="2" stroke-opacity="1" stroke-miterlimit="10"/></g><g clip-path="url(#7802ea047f)"><path stroke-linecap="butt" transform="matrix(0.885989, 0, 0, 0.885989, 152.737245, 154.696879)" fill="none" stroke-linejoin="miter" d="M 47.899624 47.901095 L 50.399478 50.40095 " stroke="#000000" stroke-width="2" stroke-opacity="1" stroke-miterlimit="10"/></g><g clip-path="url(#cc69a74240)"><path fill="#ff1616" d="M 156.6875 161.6875 C 155.648438 161.191406 154.785156 160.464844 153.96875 159.679688 C 151.25 157.070312 148.570312 154.417969 145.84375 151.820312 C 141.195312 147.394531 136.613281 142.902344 131.820312 138.632812 C 130.46875 137.425781 129.269531 136.070312 128.054688 134.730469 C 127.730469 134.371094 127.226562 133.90625 127.683594 133.410156 C 128.140625 132.921875 128.671875 133.304688 129.109375 133.621094 C 129.339844 133.78125 129.550781 133.96875 129.746094 134.171875 C 134.300781 138.945312 139.320312 143.238281 143.917969 147.976562 C 147.78125 151.960938 151.761719 155.835938 155.421875 160.015625 C 155.882812 160.539062 156.371094 161.039062 156.6875 161.6875 Z M 177.746094 148.910156 C 178.253906 144.519531 178.390625 140.105469 178.3125 135.683594 C 178.253906 132.523438 177.980469 129.363281 178.242188 126.195312 C 178.570312 122.253906 178.875 118.308594 178.785156 114.347656 C 178.769531 113.65625 178.792969 112.960938 178.613281 112.289062 C 178.484375 111.820312 178.480469 111.125 177.816406 111.160156 C 177.136719 111.199219 177.21875 111.882812 177.1875 112.371094 C 177.035156 114.5625 177.121094 116.753906 177.15625 118.945312 C 177.214844 122.644531 177.03125 126.347656 176.964844 130.050781 C 176.84375 136.761719 176.699219 143.472656 177.222656 150.179688 C 177.25 150.484375 177.285156 150.785156 177.503906 151.214844 C 177.757812 150.375 177.664062 149.632812 177.746094 148.910156 Z M 216.800781 181.691406 C 213.710938 181.480469 210.601562 181.441406 207.511719 181.664062 C 207.132812 181.691406 206.757812 181.746094 206.382812 181.8125 C 206.21875 181.839844 206.003906 181.890625 206.035156 182.128906 C 206.058594 182.3125 206.246094 182.332031 206.394531 182.347656 C 206.722656 182.382812 207.050781 182.421875 207.382812 182.425781 C 208.625 182.449219 209.871094 182.40625 211.109375 182.484375 C 214.050781 182.667969 216.984375 182.953125 219.921875 183.113281 C 224.890625 183.378906 229.859375 183.632812 234.832031 183.792969 C 237.492188 183.878906 240.15625 184.171875 242.816406 183.765625 C 243.296875 183.691406 243.980469 183.785156 243.9375 183.050781 C 243.898438 182.410156 243.257812 182.386719 242.757812 182.316406 C 242.507812 182.28125 242.25 182.308594 241.996094 182.3125 C 241.3125 182.320312 240.628906 182.351562 239.941406 182.34375 C 234.917969 182.261719 229.898438 181.917969 224.871094 181.910156 C 221.425781 181.953125 218.679688 181.820312 216.800781 181.691406 Z M 148.984375 183.21875 C 148.867188 183.183594 148.753906 183.121094 148.632812 183.113281 C 146.683594 182.992188 144.734375 182.832031 142.78125 182.777344 C 138.339844 182.648438 133.898438 182.945312 129.453125 182.914062 C 126.078125 182.894531 122.699219 182.960938 119.324219 182.875 C 116.992188 182.816406 114.660156 182.683594 112.324219 182.757812 C 111.835938 182.773438 111.363281 182.84375 110.917969 183.054688 C 110.671875 183.167969 110.488281 183.347656 110.507812 183.640625 C 110.527344 183.902344 110.726562 184.035156 110.949219 184.121094 C 111.355469 184.269531 111.78125 184.335938 112.21875 184.34375 C 114.808594 184.378906 117.398438 184.507812 119.984375 184.4375 C 128.710938 184.207031 137.449219 184.300781 146.167969 183.726562 C 147.121094 183.660156 148.066406 183.519531 149.011719 183.414062 C 149.003906 183.351562 148.992188 183.285156 148.984375 183.21875 Z M 206.15625 171.527344 C 208.207031 170.933594 210.167969 170.070312 212.1875 169.402344 C 219.480469 166.976562 226.480469 163.84375 233.425781 160.578125 C 233.699219 160.449219 233.964844 160.296875 234.222656 160.136719 C 234.425781 160.007812 234.5625 159.804688 234.5 159.554688 C 234.4375 159.304688 234.230469 159.191406 233.988281 159.15625 C 233.398438 159.070312 232.820312 159.132812 232.273438 159.367188 C 231.382812 159.746094 230.484375 160.101562 229.625 160.535156 C 225.652344 162.542969 221.640625 164.464844 217.480469 166.042969 C 213.753906 167.460938 210.019531 168.855469 206.519531 170.796875 C 206.148438 171.003906 205.75 171.167969 205.386719 171.746094 C 205.777344 171.632812 205.96875 171.582031 206.15625 171.527344 Z M 199.464844 161.128906 C 202.144531 158.59375 204.828125 156.058594 207.496094 153.507812 C 211.699219 149.5 215.933594 145.53125 220.449219 141.878906 C 222.128906 140.519531 223.746094 139.070312 225.210938 137.472656 C 225.570312 137.082031 226.167969 136.597656 225.609375 136.046875 C 225.042969 135.484375 224.589844 136.113281 224.210938 136.484375 C 221.332031 139.296875 218.335938 141.988281 215.296875 144.613281 C 209.640625 149.503906 204.695312 155.101562 199.464844 160.414062 C 199.195312 160.6875 198.863281 160.949219 198.84375 161.398438 C 199.175781 161.496094 199.308594 161.277344 199.464844 161.128906 Z M 153.71875 163.058594 C 152.816406 162.316406 151.914062 161.570312 150.996094 160.847656 C 147.792969 158.332031 144.425781 156.046875 141.105469 153.699219 C 137.097656 150.871094 133.390625 147.625 129.292969 144.917969 C 128.933594 144.679688 128.605469 144.382812 128.167969 144.292969 C 127.890625 144.238281 127.597656 144.21875 127.425781 144.515625 C 127.277344 144.773438 127.367188 145.015625 127.53125 145.226562 C 127.671875 145.40625 127.824219 145.578125 127.984375 145.742188 C 129.171875 146.996094 130.621094 147.910156 132.09375 148.753906 C 136.699219 151.386719 140.945312 154.527344 145.054688 157.875 C 147.601562 159.949219 150.273438 161.847656 153.167969 163.410156 C 153.457031 163.566406 153.746094 163.847656 154.15625 163.660156 C 154.128906 163.363281 153.90625 163.214844 153.71875 163.058594 Z M 180.648438 152.144531 C 180.933594 150.863281 181.261719 149.585938 181.5 148.296875 C 182.019531 145.503906 182.085938 142.664062 182.371094 139.847656 C 182.710938 136.496094 183.449219 133.199219 184.011719 129.878906 C 184.5 127.011719 185.246094 124.195312 185.585938 121.300781 C 185.636719 120.875 185.734375 120.359375 185.164062 120.214844 C 184.597656 120.074219 184.433594 120.578125 184.28125 120.972656 C 183.835938 122.121094 183.609375 123.332031 183.449219 124.542969 C 182.484375 131.855469 181.519531 139.164062 180.597656 146.480469 C 180.359375 148.347656 180.234375 150.230469 180.433594 152.113281 C 180.503906 152.125 180.578125 152.132812 180.648438 152.144531 Z M 198.464844 157.613281 C 202.859375 151.898438 207.683594 146.535156 212.117188 140.851562 C 213.230469 139.429688 214.378906 138.03125 215.492188 136.605469 C 215.808594 136.203125 216.167969 135.707031 215.640625 135.257812 C 215.113281 134.8125 214.703125 135.28125 214.347656 135.640625 C 213.988281 136.003906 213.644531 136.382812 213.335938 136.785156 C 210.679688 140.269531 208.046875 143.773438 205.371094 147.238281 C 202.460938 151.007812 199.4375 154.691406 196.929688 158.757812 C 196.734375 159.070312 196.488281 159.359375 196.601562 159.847656 C 197.222656 159.105469 197.871094 158.378906 198.464844 157.613281 Z M 173.796875 152.269531 C 173.265625 148.292969 173.125 144.285156 172.835938 140.289062 C 172.402344 134.257812 171.964844 128.222656 171.246094 122.214844 C 171.117188 121.160156 171.136719 120.066406 170.734375 119.054688 C 170.605469 118.734375 170.410156 118.441406 170.003906 118.507812 C 169.582031 118.574219 169.519531 118.929688 169.53125 119.269531 C 169.558594 120.136719 169.558594 121.011719 169.679688 121.867188 C 170.246094 125.78125 170.792969 129.699219 171.253906 133.628906 C 171.902344 139.125 172.054688 144.675781 172.933594 150.148438 C 173.0625 150.960938 173.175781 151.792969 173.6875 152.695312 C 173.761719 152.410156 173.804688 152.335938 173.796875 152.269531 Z M 150.359375 172.058594 C 150.429688 171.832031 150.210938 171.757812 150.058594 171.691406 C 149.414062 171.394531 148.765625 171.105469 148.109375 170.832031 C 145.34375 169.675781 142.40625 168.988281 139.675781 167.730469 C 136.515625 166.277344 133.25 165.066406 130.042969 163.714844 C 127.726562 162.738281 125.257812 162.171875 123.011719 161.007812 C 122.683594 160.835938 122.289062 160.765625 121.914062 160.714844 C 121.464844 160.65625 121 160.738281 120.878906 161.265625 C 120.765625 161.769531 121.164062 161.957031 121.550781 162.144531 C 124.207031 163.445312 127.039062 164.253906 129.839844 165.164062 C 134.863281 166.792969 139.804688 168.644531 144.738281 170.527344 C 146.449219 171.179688 148.183594 171.746094 149.917969 172.179688 C 150.105469 172.15625 150.304688 172.25 150.359375 172.058594 Z M 162.523438 145.679688 C 161.5625 143.847656 160.789062 141.941406 160.128906 139.980469 C 158.636719 135.527344 156.84375 131.195312 155.023438 126.871094 C 154.785156 126.308594 154.496094 125.765625 154.105469 125.289062 C 153.941406 125.085938 153.710938 124.957031 153.433594 125.082031 C 153.15625 125.203125 153.105469 125.449219 153.125 125.71875 C 153.160156 126.183594 153.335938 126.609375 153.492188 127.039062 C 154.753906 130.523438 156.328125 133.867188 157.867188 137.226562 C 160.097656 142.085938 161.652344 147.246094 164.300781 151.917969 C 164.671875 152.574219 164.9375 153.296875 165.542969 153.8125 C 164.625 151.066406 163.871094 148.257812 162.523438 145.679688 Z M 158.453125 157.796875 C 154.910156 153.859375 151.523438 149.789062 148.242188 145.628906 C 145.828125 142.566406 143.53125 139.417969 141.125 136.351562 C 140.136719 135.09375 139.113281 133.851562 137.925781 132.769531 C 137.640625 132.507812 137.28125 132.242188 136.90625 132.535156 C 136.5 132.855469 136.667969 133.308594 136.898438 133.644531 C 137.390625 134.355469 137.886719 135.074219 138.464844 135.714844 C 142.859375 140.566406 146.964844 145.664062 151.210938 150.644531 C 153.339844 153.144531 155.628906 155.503906 157.855469 157.917969 C 158.117188 158.203125 158.378906 158.539062 158.902344 158.570312 C 158.886719 158.164062 158.636719 158 158.453125 157.796875 Z M 220.941406 176.714844 C 217.175781 177.230469 213.4375 177.976562 209.628906 178.183594 C 208.542969 178.242188 207.464844 178.464844 206.421875 178.789062 C 206.210938 178.855469 205.898438 178.894531 205.941406 179.175781 C 205.972656 179.394531 206.265625 179.375 206.464844 179.371094 C 206.894531 179.371094 207.328125 179.386719 207.757812 179.339844 C 210.503906 179.046875 213.222656 178.546875 215.980469 178.296875 C 222.070312 177.738281 228.167969 177.375 234.265625 176.953125 C 234.71875 176.921875 235.175781 176.871094 235.621094 176.789062 C 235.964844 176.722656 236.382812 176.644531 236.371094 176.175781 C 236.355469 175.671875 235.925781 175.597656 235.546875 175.558594 C 234.839844 175.488281 234.128906 175.453125 233.421875 175.402344 C 229.238281 175.621094 225.085938 176.148438 220.941406 176.714844 Z M 189.199219 153.953125 C 190.382812 151.582031 191.644531 149.25 192.71875 146.820312 C 194.171875 143.535156 195.4375 140.15625 197.335938 137.082031 C 198.679688 134.910156 199.761719 132.597656 200.851562 130.292969 C 201.234375 129.488281 201.542969 128.648438 201.863281 127.8125 C 201.988281 127.496094 202.035156 127.148438 201.6875 126.921875 C 201.371094 126.710938 201.109375 126.886719 200.859375 127.082031 C 200.449219 127.40625 200.195312 127.839844 199.96875 128.304688 C 198.6875 130.914062 197.527344 133.582031 196.40625 136.265625 C 195.40625 138.667969 194.0625 140.902344 193.011719 143.289062 C 191.519531 146.671875 190.347656 150.183594 188.941406 153.601562 C 188.847656 153.828125 188.730469 154.066406 188.851562 154.328125 C 189.074219 154.300781 189.121094 154.101562 189.199219 153.953125 Z M 148.480469 178.496094 C 146.632812 178.375 144.789062 178.242188 142.9375 178.148438 C 141.34375 178.066406 139.738281 178.109375 138.148438 177.957031 C 131.992188 177.351562 125.84375 176.628906 119.65625 176.390625 C 118.714844 176.351562 117.777344 176.375 116.851562 176.546875 C 116.574219 176.601562 116.289062 176.710938 116.261719 177.054688 C 116.230469 177.390625 116.476562 177.558594 116.738281 177.675781 C 117.0625 177.828125 117.414062 177.875 117.773438 177.882812 C 120.792969 177.96875 123.808594 178.0625 126.828125 178.144531 C 131.492188 178.273438 136.15625 178.472656 140.8125 178.785156 C 143.140625 178.941406 145.457031 179.273438 147.800781 179.160156 C 148.269531 179.136719 148.761719 179.191406 149.242188 178.789062 C 148.972656 178.566406 148.730469 178.511719 148.480469 178.496094 Z M 203.558594 167.625 C 205.066406 167.007812 206.511719 166.261719 207.921875 165.449219 C 211.441406 163.414062 214.957031 161.375 218.714844 159.78125 C 221.125 158.757812 223.3125 157.28125 225.625 156.0625 C 226.046875 155.839844 226.691406 155.5625 226.378906 154.933594 C 226.078125 154.335938 225.464844 154.640625 225.015625 154.8125 C 224.28125 155.09375 223.5625 155.425781 222.867188 155.789062 C 217.492188 158.574219 212.308594 161.691406 207.09375 164.761719 C 205.871094 165.484375 204.667969 166.253906 203.472656 167.023438 C 203.199219 167.203125 202.863281 167.382812 202.804688 167.902344 C 203.105469 167.792969 203.335938 167.714844 203.558594 167.625 Z M 167.613281 147.902344 C 166.667969 143.960938 165.714844 140.019531 164.714844 136.09375 C 163.957031 133.128906 163.460938 130.101562 162.585938 127.164062 C 162.460938 126.75 162.355469 126.324219 162.085938 125.972656 C 161.921875 125.757812 161.707031 125.621094 161.425781 125.710938 C 161.125 125.8125 161.089844 126.078125 161.117188 126.339844 C 161.160156 126.796875 161.199219 127.253906 161.289062 127.703125 C 162 131.3125 163.015625 134.839844 163.976562 138.382812 C 165.246094 143.054688 166.488281 147.734375 168.089844 152.304688 C 168.238281 152.730469 168.363281 153.175781 168.824219 153.476562 C 168.300781 151.644531 168.054688 149.753906 167.613281 147.902344 Z M 193.640625 155.613281 C 194.652344 153.933594 195.566406 152.1875 196.648438 150.554688 C 199.179688 146.734375 201.800781 142.972656 204.367188 139.171875 C 205.492188 137.503906 206.503906 135.761719 207.269531 133.890625 C 207.394531 133.585938 207.527344 133.21875 207.164062 132.996094 C 206.769531 132.757812 206.496094 133.046875 206.261719 133.328125 C 205.558594 134.171875 204.949219 135.078125 204.433594 136.050781 C 203.113281 138.527344 201.585938 140.878906 200.089844 143.246094 C 197.832031 146.824219 195.773438 150.523438 193.515625 154.097656 C 193.003906 154.902344 192.75 155.796875 192.75 156.808594 C 193.046875 156.410156 193.386719 156.035156 193.640625 155.613281 Z M 201.59375 164.359375 C 203.292969 163.101562 205.023438 161.890625 206.671875 160.570312 C 211.101562 157.015625 215.554688 153.507812 220.421875 150.558594 C 221.855469 149.6875 223.238281 148.726562 224.492188 147.597656 C 224.878906 147.25 225.5625 146.847656 225.078125 146.230469 C 224.585938 145.609375 224.0625 146.195312 223.636719 146.503906 C 221.640625 147.957031 219.675781 149.457031 217.667969 150.890625 C 212.089844 154.867188 206.726562 159.117188 201.628906 163.703125 C 201.371094 163.933594 201.066406 164.144531 200.996094 164.597656 C 201.285156 164.621094 201.4375 164.476562 201.59375 164.359375 Z M 185.429688 152.082031 C 185.777344 150.855469 186.066406 149.609375 186.480469 148.40625 C 188.753906 141.769531 190.972656 135.117188 192.828125 128.34375 C 192.925781 127.976562 193.035156 127.605469 193.078125 127.226562 C 193.117188 126.886719 193.21875 126.425781 192.796875 126.289062 C 192.351562 126.144531 192.207031 126.597656 192.054688 126.902344 C 191.425781 128.160156 190.898438 129.464844 190.527344 130.820312 C 188.835938 136.96875 187.15625 143.121094 185.523438 149.285156 C 185.222656 150.429688 184.90625 151.601562 185.183594 152.855469 C 185.265625 152.597656 185.355469 152.34375 185.429688 152.082031 Z M 207.867188 175.035156 C 210.546875 174.464844 213.207031 173.765625 215.90625 173.308594 C 219.960938 172.625 224.023438 172.011719 228.019531 171.011719 C 228.910156 170.789062 229.769531 170.5 230.597656 170.101562 C 230.835938 169.988281 231.078125 169.863281 231.03125 169.550781 C 230.976562 169.199219 230.675781 169.15625 230.390625 169.136719 C 230.238281 169.125 230.082031 169.132812 229.9375 169.160156 C 228.589844 169.421875 227.238281 169.652344 225.902344 169.957031 C 221.820312 170.898438 217.746094 171.863281 213.671875 172.824219 C 211.621094 173.308594 209.574219 173.804688 207.53125 174.316406 C 207.007812 174.449219 206.46875 174.605469 206.15625 175.253906 C 206.726562 175.183594 207.304688 175.152344 207.867188 175.035156 Z M 146.714844 132.769531 C 146.753906 133.109375 146.949219 133.386719 147.101562 133.679688 C 148.273438 135.898438 149.828125 137.863281 151.207031 139.945312 C 154.179688 144.429688 157.058594 148.976562 160.164062 153.371094 C 160.738281 154.183594 161.324219 154.984375 161.925781 155.777344 C 162.066406 155.964844 162.296875 156.257812 162.535156 156.027344 C 162.722656 155.839844 162.425781 155.628906 162.304688 155.453125 C 159.480469 151.390625 156.769531 147.25 154.304688 142.957031 C 152.476562 139.773438 150.570312 136.636719 148.675781 133.492188 C 148.441406 133.101562 148.121094 132.761719 147.828125 132.410156 C 147.679688 132.230469 147.476562 132.121094 147.238281 132.09375 C 146.875 132.085938 146.664062 132.347656 146.714844 132.769531 Z M 149.171875 174.808594 C 149.203125 174.335938 148.582031 174.542969 148.269531 174.386719 C 148.183594 174.34375 148.066406 174.363281 147.96875 174.339844 C 144.027344 173.476562 140.050781 172.785156 136.09375 171.992188 C 131.9375 171.160156 127.820312 170.132812 123.683594 169.207031 C 122.992188 169.050781 122.292969 168.898438 121.570312 168.949219 C 121.3125 168.96875 121.042969 169.007812 120.972656 169.316406 C 120.898438 169.617188 121.117188 169.789062 121.332031 169.929688 C 121.855469 170.265625 122.449219 170.40625 123.042969 170.539062 C 125.703125 171.140625 128.421875 171.304688 131.105469 171.703125 C 134.574219 172.214844 137.96875 173.105469 141.394531 173.835938 C 143.652344 174.316406 145.925781 174.71875 148.128906 175.035156 C 148.554688 174.945312 149.152344 175.117188 149.171875 174.808594 Z M 150.898438 167.828125 C 147.703125 166.203125 144.4375 164.710938 141.328125 162.933594 C 137.335938 160.648438 133.195312 158.628906 129.304688 156.15625 C 129.070312 156.007812 128.820312 155.871094 128.558594 155.78125 C 128.082031 155.613281 127.476562 155.171875 127.152344 155.84375 C 126.847656 156.464844 127.53125 156.691406 127.933594 156.957031 C 130.445312 158.613281 133.097656 160.003906 135.894531 161.113281 C 139.753906 162.644531 143.277344 164.871094 147.015625 166.648438 C 148.476562 167.34375 149.988281 167.910156 151.726562 168.464844 C 151.433594 167.992188 151.136719 167.949219 150.898438 167.828125 Z M 150.898438 167.828125 " fill-opacity="1" fill-rule="nonzero"/><path fill="#ff1616" d="M 156.6875 161.6875 C 155.648438 161.191406 154.785156 160.464844 153.96875 159.679688 C 151.25 157.070312 148.570312 154.417969 145.84375 151.820312 C 141.195312 147.394531 136.613281 142.902344 131.820312 138.632812 C 130.46875 137.425781 129.269531 136.070312 128.054688 134.730469 C 127.730469 134.371094 127.226562 133.90625 127.683594 133.410156 C 128.140625 132.921875 128.671875 133.304688 129.109375 133.621094 C 129.339844 133.78125 129.550781 133.96875 129.746094 134.171875 C 134.300781 138.945312 139.320312 143.238281 143.917969 147.976562 C 147.78125 151.960938 151.761719 155.835938 155.421875 160.015625 C 155.882812 160.539062 156.371094 161.039062 156.6875 161.6875 Z M 177.746094 148.910156 C 178.253906 144.519531 178.390625 140.105469 178.3125 135.683594 C 178.253906 132.523438 177.980469 129.363281 178.242188 126.195312 C 178.570312 122.253906 178.875 118.308594 178.785156 114.347656 C 178.769531 113.65625 178.792969 112.960938 178.613281 112.289062 C 178.484375 111.820312 178.480469 111.125 177.816406 111.160156 C 177.136719 111.199219 177.21875 111.882812 177.1875 112.371094 C 177.035156 114.5625 177.121094 116.753906 177.15625 118.945312 C 177.214844 122.644531 177.03125 126.347656 176.964844 130.050781 C 176.84375 136.761719 176.699219 143.472656 177.222656 150.179688 C 177.25 150.484375 177.285156 150.785156 177.503906 151.214844 C 177.757812 150.375 177.664062 149.632812 177.746094 148.910156 Z M 216.800781 181.691406 C 213.710938 181.480469 210.601562 181.441406 207.511719 181.664062 C 207.132812 181.691406 206.757812 181.746094 206.382812 181.8125 C 206.21875 181.839844 206.003906 181.890625 206.035156 182.128906 C 206.058594 182.3125 206.246094 182.332031 206.394531 182.347656 C 206.722656 182.382812 207.050781 182.421875 207.382812 182.425781 C 208.625 182.449219 209.871094 182.40625 211.109375 182.484375 C 214.050781 182.667969 216.984375 182.953125 219.921875 183.113281 C 224.890625 183.378906 229.859375 183.632812 234.832031 183.792969 C 237.492188 183.878906 240.15625 184.171875 242.816406 183.765625 C 243.296875 183.691406 243.980469 183.785156 243.9375 183.050781 C 243.898438 182.410156 243.257812 182.386719 242.757812 182.316406 C 242.507812 182.28125 242.25 182.308594 241.996094 182.3125 C 241.3125 182.320312 240.628906 182.351562 239.941406 182.34375 C 234.917969 182.261719 229.898438 181.917969 224.871094 181.910156 C 221.425781 181.953125 218.679688 181.820312 216.800781 181.691406 Z M 148.984375 183.21875 C 148.867188 183.183594 148.753906 183.121094 148.632812 183.113281 C 146.683594 182.992188 144.734375 182.832031 142.78125 182.777344 C 138.339844 182.648438 133.898438 182.945312 129.453125 182.914062 C 126.078125 182.894531 122.699219 182.960938 119.324219 182.875 C 116.992188 182.816406 114.660156 182.683594 112.324219 182.757812 C 111.835938 182.773438 111.363281 182.84375 110.917969 183.054688 C 110.671875 183.167969 110.488281 183.347656 110.507812 183.640625 C 110.527344 183.902344 110.726562 184.035156 110.949219 184.121094 C 111.355469 184.269531 111.78125 184.335938 112.21875 184.34375 C 114.808594 184.378906 117.398438 184.507812 119.984375 184.4375 C 128.710938 184.207031 137.449219 184.300781 146.167969 183.726562 C 147.121094 183.660156 148.066406 183.519531 149.011719 183.414062 C 149.003906 183.351562 148.992188 183.285156 148.984375 183.21875 Z M 206.15625 171.527344 C 208.207031 170.933594 210.167969 170.070312 212.1875 169.402344 C 219.480469 166.976562 226.480469 163.84375 233.425781 160.578125 C 233.699219 160.449219 233.964844 160.296875 234.222656 160.136719 C 234.425781 160.007812 234.5625 159.804688 234.5 159.554688 C 234.4375 159.304688 234.230469 159.191406 233.988281 159.15625 C 233.398438 159.070312 232.820312 159.132812 232.273438 159.367188 C 231.382812 159.746094 230.484375 160.101562 229.625 160.535156 C 225.652344 162.542969 221.640625 164.464844 217.480469 166.042969 C 213.753906 167.460938 210.019531 168.855469 206.519531 170.796875 C 206.148438 171.003906 205.75 171.167969 205.386719 171.746094 C 205.777344 171.632812 205.96875 171.582031 206.15625 171.527344 Z M 199.464844 161.128906 C 202.144531 158.59375 204.828125 156.058594 207.496094 153.507812 C 211.699219 149.5 215.933594 145.53125 220.449219 141.878906 C 222.128906 140.519531 223.746094 139.070312 225.210938 137.472656 C 225.570312 137.082031 226.167969 136.597656 225.609375 136.046875 C 225.042969 135.484375 224.589844 136.113281 224.210938 136.484375 C 221.332031 139.296875 218.335938 141.988281 215.296875 144.613281 C 209.640625 149.503906 204.695312 155.101562 199.464844 160.414062 C 199.195312 160.6875 198.863281 160.949219 198.84375 161.398438 C 199.175781 161.496094 199.308594 161.277344 199.464844 161.128906 Z M 153.71875 163.058594 C 152.816406 162.316406 151.914062 161.570312 150.996094 160.847656 C 147.792969 158.332031 144.425781 156.046875 141.105469 153.699219 C 137.097656 150.871094 133.390625 147.625 129.292969 144.917969 C 128.933594 144.679688 128.605469 144.382812 128.167969 144.292969 C 127.890625 144.238281 127.597656 144.21875 127.425781 144.515625 C 127.277344 144.773438 127.367188 145.015625 127.53125 145.226562 C 127.671875 145.40625 127.824219 145.578125 127.984375 145.742188 C 129.171875 146.996094 130.621094 147.910156 132.09375 148.753906 C 136.699219 151.386719 140.945312 154.527344 145.054688 157.875 C 147.601562 159.949219 150.273438 161.847656 153.167969 163.410156 C 153.457031 163.566406 153.746094 163.847656 154.15625 163.660156 C 154.128906 163.363281 153.90625 163.214844 153.71875 163.058594 Z M 180.648438 152.144531 C 180.933594 150.863281 181.261719 149.585938 181.5 148.296875 C 182.019531 145.503906 182.085938 142.664062 182.371094 139.847656 C 182.710938 136.496094 183.449219 133.199219 184.011719 129.878906 C 184.5 127.011719 185.246094 124.195312 185.585938 121.300781 C 185.636719 120.875 185.734375 120.359375 185.164062 120.214844 C 184.597656 120.074219 184.433594 120.578125 184.28125 120.972656 C 183.835938 122.121094 183.609375 123.332031 183.449219 124.542969 C 182.484375 131.855469 181.519531 139.164062 180.597656 146.480469 C 180.359375 148.347656 180.234375 150.230469 180.433594 152.113281 C 180.503906 152.125 180.578125 152.132812 180.648438 152.144531 Z M 198.464844 157.613281 C 202.859375 151.898438 207.683594 146.535156 212.117188 140.851562 C 213.230469 139.429688 214.378906 138.03125 215.492188 136.605469 C 215.808594 136.203125 216.167969 135.707031 215.640625 135.257812 C 215.113281 134.8125 214.703125 135.28125 214.347656 135.640625 C 213.988281 136.003906 213.644531 136.382812 213.335938 136.785156 C 210.679688 140.269531 208.046875 143.773438 205.371094 147.238281 C 202.460938 151.007812 199.4375 154.691406 196.929688 158.757812 C 196.734375 159.070312 196.488281 159.359375 196.601562 159.847656 C 197.222656 159.105469 197.871094 158.378906 198.464844 157.613281 Z M 173.796875 152.269531 C 173.265625 148.292969 173.125 144.285156 172.835938 140.289062 C 172.402344 134.257812 171.964844 128.222656 171.246094 122.214844 C 171.117188 121.160156 171.136719 120.066406 170.734375 119.054688 C 170.605469 118.734375 170.410156 118.441406 170.003906 118.507812 C 169.582031 118.574219 169.519531 118.929688 169.53125 119.269531 C 169.558594 120.136719 169.558594 121.011719 169.679688 121.867188 C 170.246094 125.78125 170.792969 129.699219 171.253906 133.628906 C 171.902344 139.125 172.054688 144.675781 172.933594 150.148438 C 173.0625 150.960938 173.175781 151.792969 173.6875 152.695312 C 173.761719 152.410156 173.804688 152.335938 173.796875 152.269531 Z M 150.359375 172.058594 C 150.429688 171.832031 150.210938 171.757812 150.058594 171.691406 C 149.414062 171.394531 148.765625 171.105469 148.109375 170.832031 C 145.34375 169.675781 142.40625 168.988281 139.675781 167.730469 C 136.515625 166.277344 133.25 165.066406 130.042969 163.714844 C 127.726562 162.738281 125.257812 162.171875 123.011719 161.007812 C 122.683594 160.835938 122.289062 160.765625 121.914062 160.714844 C 121.464844 160.65625 121 160.738281 120.878906 161.265625 C 120.765625 161.769531 121.164062 161.957031 121.550781 162.144531 C 124.207031 163.445312 127.039062 164.253906 129.839844 165.164062 C 134.863281 166.792969 139.804688 168.644531 144.738281 170.527344 C 146.449219 171.179688 148.183594 171.746094 149.917969 172.179688 C 150.105469 172.15625 150.304688 172.25 150.359375 172.058594 Z M 162.523438 145.679688 C 161.5625 143.847656 160.789062 141.941406 160.128906 139.980469 C 158.636719 135.527344 156.84375 131.195312 155.023438 126.871094 C 154.785156 126.308594 154.496094 125.765625 154.105469 125.289062 C 153.941406 125.085938 153.710938 124.957031 153.433594 125.082031 C 153.15625 125.203125 153.105469 125.449219 153.125 125.71875 C 153.160156 126.183594 153.335938 126.609375 153.492188 127.039062 C 154.753906 130.523438 156.328125 133.867188 157.867188 137.226562 C 160.097656 142.085938 161.652344 147.246094 164.300781 151.917969 C 164.671875 152.574219 164.9375 153.296875 165.542969 153.8125 C 164.625 151.066406 163.871094 148.257812 162.523438 145.679688 Z M 158.453125 157.796875 C 154.910156 153.859375 151.523438 149.789062 148.242188 145.628906 C 145.828125 142.566406 143.53125 139.417969 141.125 136.351562 C 140.136719 135.09375 139.113281 133.851562 137.925781 132.769531 C 137.640625 132.507812 137.28125 132.242188 136.90625 132.535156 C 136.5 132.855469 136.667969 133.308594 136.898438 133.644531 C 137.390625 134.355469 137.886719 135.074219 138.464844 135.714844 C 142.859375 140.566406 146.964844 145.664062 151.210938 150.644531 C 153.339844 153.144531 155.628906 155.503906 157.855469 157.917969 C 158.117188 158.203125 158.378906 158.539062 158.902344 158.570312 C 158.886719 158.164062 158.636719 158 158.453125 157.796875 Z M 220.941406 176.714844 C 217.175781 177.230469 213.4375 177.976562 209.628906 178.183594 C 208.542969 178.242188 207.464844 178.464844 206.421875 178.789062 C 206.210938 178.855469 205.898438 178.894531 205.941406 179.175781 C 205.972656 179.394531 206.265625 179.375 206.464844 179.371094 C 206.894531 179.371094 207.328125 179.386719 207.757812 179.339844 C 210.503906 179.046875 213.222656 178.546875 215.980469 178.296875 C 222.070312 177.738281 228.167969 177.375 234.265625 176.953125 C 234.71875 176.921875 235.175781 176.871094 235.621094 176.789062 C 235.964844 176.722656 236.382812 176.644531 236.371094 176.175781 C 236.355469 175.671875 235.925781 175.597656 235.546875 175.558594 C 234.839844 175.488281 234.128906 175.453125 233.421875 175.402344 C 229.238281 175.621094 225.085938 176.148438 220.941406 176.714844 Z M 189.199219 153.953125 C 190.382812 151.582031 191.644531 149.25 192.71875 146.820312 C 194.171875 143.535156 195.4375 140.15625 197.335938 137.082031 C 198.679688 134.910156 199.761719 132.597656 200.851562 130.292969 C 201.234375 129.488281 201.542969 128.648438 201.863281 127.8125 C 201.988281 127.496094 202.035156 127.148438 201.6875 126.921875 C 201.371094 126.710938 201.109375 126.886719 200.859375 127.082031 C 200.449219 127.40625 200.195312 127.839844 199.96875 128.304688 C 198.6875 130.914062 197.527344 133.582031 196.40625 136.265625 C 195.40625 138.667969 194.0625 140.902344 193.011719 143.289062 C 191.519531 146.671875 190.347656 150.183594 188.941406 153.601562 C 188.847656 153.828125 188.730469 154.066406 188.851562 154.328125 C 189.074219 154.300781 189.121094 154.101562 189.199219 153.953125 Z M 148.480469 178.496094 C 146.632812 178.375 144.789062 178.242188 142.9375 178.148438 C 141.34375 178.066406 139.738281 178.109375 138.148438 177.957031 C 131.992188 177.351562 125.84375 176.628906 119.65625 176.390625 C 118.714844 176.351562 117.777344 176.375 116.851562 176.546875 C 116.574219 176.601562 116.289062 176.710938 116.261719 177.054688 C 116.230469 177.390625 116.476562 177.558594 116.738281 177.675781 C 117.0625 177.828125 117.414062 177.875 117.773438 177.882812 C 120.792969 177.96875 123.808594 178.0625 126.828125 178.144531 C 131.492188 178.273438 136.15625 178.472656 140.8125 178.785156 C 143.140625 178.941406 145.457031 179.273438 147.800781 179.160156 C 148.269531 179.136719 148.761719 179.191406 149.242188 178.789062 C 148.972656 178.566406 148.730469 178.511719 148.480469 178.496094 Z M 203.558594 167.625 C 205.066406 167.007812 206.511719 166.261719 207.921875 165.449219 C 211.441406 163.414062 214.957031 161.375 218.714844 159.78125 C 221.125 158.757812 223.3125 157.28125 225.625 156.0625 C 226.046875 155.839844 226.691406 155.5625 226.378906 154.933594 C 226.078125 154.335938 225.464844 154.640625 225.015625 154.8125 C 224.28125 155.09375 223.5625 155.425781 222.867188 155.789062 C 217.492188 158.574219 212.308594 161.691406 207.09375 164.761719 C 205.871094 165.484375 204.667969 166.253906 203.472656 167.023438 C 203.199219 167.203125 202.863281 167.382812 202.804688 167.902344 C 203.105469 167.792969 203.335938 167.714844 203.558594 167.625 Z M 167.613281 147.902344 C 166.667969 143.960938 165.714844 140.019531 164.714844 136.09375 C 163.957031 133.128906 163.460938 130.101562 162.585938 127.164062 C 162.460938 126.75 162.355469 126.324219 162.085938 125.972656 C 161.921875 125.757812 161.707031 125.621094 161.425781 125.710938 C 161.125 125.8125 161.089844 126.078125 161.117188 126.339844 C 161.160156 126.796875 161.199219 127.253906 161.289062 127.703125 C 162 131.3125 163.015625 134.839844 163.976562 138.382812 C 165.246094 143.054688 166.488281 147.734375 168.089844 152.304688 C 168.238281 152.730469 168.363281 153.175781 168.824219 153.476562 C 168.300781 151.644531 168.054688 149.753906 167.613281 147.902344 Z M 193.640625 155.613281 C 194.652344 153.933594 195.566406 152.1875 196.648438 150.554688 C 199.179688 146.734375 201.800781 142.972656 204.367188 139.171875 C 205.492188 137.503906 206.503906 135.761719 207.269531 133.890625 C 207.394531 133.585938 207.527344 133.21875 207.164062 132.996094 C 206.769531 132.757812 206.496094 133.046875 206.261719 133.328125 C 205.558594 134.171875 204.949219 135.078125 204.433594 136.050781 C 203.113281 138.527344 201.585938 140.878906 200.089844 143.246094 C 197.832031 146.824219 195.773438 150.523438 193.515625 154.097656 C 193.003906 154.902344 192.75 155.796875 192.75 156.808594 C 193.046875 156.410156 193.386719 156.035156 193.640625 155.613281 Z M 201.59375 164.359375 C 203.292969 163.101562 205.023438 161.890625 206.671875 160.570312 C 211.101562 157.015625 215.554688 153.507812 220.421875 150.558594 C 221.855469 149.6875 223.238281 148.726562 224.492188 147.597656 C 224.878906 147.25 225.5625 146.847656 225.078125 146.230469 C 224.585938 145.609375 224.0625 146.195312 223.636719 146.503906 C 221.640625 147.957031 219.675781 149.457031 217.667969 150.890625 C 212.089844 154.867188 206.726562 159.117188 201.628906 163.703125 C 201.371094 163.933594 201.066406 164.144531 200.996094 164.597656 C 201.285156 164.621094 201.4375 164.476562 201.59375 164.359375 Z M 185.429688 152.082031 C 185.777344 150.855469 186.066406 149.609375 186.480469 148.40625 C 188.753906 141.769531 190.972656 135.117188 192.828125 128.34375 C 192.925781 127.976562 193.035156 127.605469 193.078125 127.226562 C 193.117188 126.886719 193.21875 126.425781 192.796875 126.289062 C 192.351562 126.144531 192.207031 126.597656 192.054688 126.902344 C 191.425781 128.160156 190.898438 129.464844 190.527344 130.820312 C 188.835938 136.96875 187.15625 143.121094 185.523438 149.285156 C 185.222656 150.429688 184.90625 151.601562 185.183594 152.855469 C 185.265625 152.597656 185.355469 152.34375 185.429688 152.082031 Z M 207.867188 175.035156 C 210.546875 174.464844 213.207031 173.765625 215.90625 173.308594 C 219.960938 172.625 224.023438 172.011719 228.019531 171.011719 C 228.910156 170.789062 229.769531 170.5 230.597656 170.101562 C 230.835938 169.988281 231.078125 169.863281 231.03125 169.550781 C 230.976562 169.199219 230.675781 169.15625 230.390625 169.136719 C 230.238281 169.125 230.082031 169.132812 229.9375 169.160156 C 228.589844 169.421875 227.238281 169.652344 225.902344 169.957031 C 221.820312 170.898438 217.746094 171.863281 213.671875 172.824219 C 211.621094 173.308594 209.574219 173.804688 207.53125 174.316406 C 207.007812 174.449219 206.46875 174.605469 206.15625 175.253906 C 206.726562 175.183594 207.304688 175.152344 207.867188 175.035156 Z M 146.714844 132.769531 C 146.753906 133.109375 146.949219 133.386719 147.101562 133.679688 C 148.273438 135.898438 149.828125 137.863281 151.207031 139.945312 C 154.179688 144.429688 157.058594 148.976562 160.164062 153.371094 C 160.738281 154.183594 161.324219 154.984375 161.925781 155.777344 C 162.066406 155.964844 162.296875 156.257812 162.535156 156.027344 C 162.722656 155.839844 162.425781 155.628906 162.304688 155.453125 C 159.480469 151.390625 156.769531 147.25 154.304688 142.957031 C 152.476562 139.773438 150.570312 136.636719 148.675781 133.492188 C 148.441406 133.101562 148.121094 132.761719 147.828125 132.410156 C 147.679688 132.230469 147.476562 132.121094 147.238281 132.09375 C 146.875 132.085938 146.664062 132.347656 146.714844 132.769531 Z M 149.171875 174.808594 C 149.203125 174.335938 148.582031 174.542969 148.269531 174.386719 C 148.183594 174.34375 148.066406 174.363281 147.96875 174.339844 C 144.027344 173.476562 140.050781 172.785156 136.09375 171.992188 C 131.9375 171.160156 127.820312 170.132812 123.683594 169.207031 C 122.992188 169.050781 122.292969 168.898438 121.570312 168.949219 C 121.3125 168.96875 121.042969 169.007812 120.972656 169.316406 C 120.898438 169.617188 121.117188 169.789062 121.332031 169.929688 C 121.855469 170.265625 122.449219 170.40625 123.042969 170.539062 C 125.703125 171.140625 128.421875 171.304688 131.105469 171.703125 C 134.574219 172.214844 137.96875 173.105469 141.394531 173.835938 C 143.652344 174.316406 145.925781 174.71875 148.128906 175.035156 C 148.554688 174.945312 149.152344 175.117188 149.171875 174.808594 Z M 150.898438 167.828125 C 147.703125 166.203125 144.4375 164.710938 141.328125 162.933594 C 137.335938 160.648438 133.195312 158.628906 129.304688 156.15625 C 129.070312 156.007812 128.820312 155.871094 128.558594 155.78125 C 128.082031 155.613281 127.476562 155.171875 127.152344 155.84375 C 126.847656 156.464844 127.53125 156.691406 127.933594 156.957031 C 130.445312 158.613281 133.097656 160.003906 135.894531 161.113281 C 139.753906 162.644531 143.277344 164.871094 147.015625 166.648438 C 148.476562 167.34375 149.988281 167.910156 151.726562 168.464844 C 151.433594 167.992188 151.136719 167.949219 150.898438 167.828125 Z M 150.898438 167.828125 " fill-opacity="1" fill-rule="nonzero"/></g><g fill="#000000" fill-opacity="1"><g transform="translate(36.332665, 253.374261)"><g><path d="M 1.605469 0 L 4.8125 0 L 4.8125 -22.464844 L 1.605469 -22.464844 Z M 1.605469 0 "/></g></g></g><g fill="#000000" fill-opacity="1"><g transform="translate(50.742637, 253.374261)"><g><path d="M 24.070312 -22.464844 L 20.859375 -22.464844 L 20.859375 -5.457031 L 4.8125 -22.464844 L 1.605469 -22.464844 L 1.605469 0 L 4.8125 0 L 4.8125 -17.265625 L 20.859375 0 L 24.070312 0 Z M 24.070312 -22.464844 "/></g></g></g><g fill="#000000" fill-opacity="1"><g transform="translate(84.407353, 253.374261)"><g><path d="M 23.75 -6.417969 C 23.75 -9.980469 20.699219 -12.835938 17.332031 -12.835938 L 7.703125 -12.835938 C 5.9375 -12.835938 4.492188 -14.28125 4.492188 -16.046875 C 4.492188 -17.8125 5.9375 -19.253906 7.703125 -19.253906 L 17.332031 -19.253906 C 19.09375 -19.253906 20.539062 -17.8125 20.539062 -16.046875 L 23.75 -16.046875 C 23.652344 -19.609375 20.765625 -22.464844 17.332031 -22.464844 L 7.703125 -22.464844 C 4.109375 -22.464844 1.285156 -19.449219 1.285156 -16.046875 C 1.285156 -12.417969 4.269531 -9.628906 7.703125 -9.628906 L 17.332031 -9.628906 C 19.09375 -9.628906 20.539062 -8.183594 20.539062 -6.417969 C 20.539062 -4.652344 19.09375 -3.210938 17.332031 -3.210938 L 7.703125 -3.210938 C 5.9375 -3.210938 4.492188 -4.652344 4.492188 -6.417969 L 1.285156 -6.417969 C 1.378906 -2.792969 4.203125 0 7.703125 0 L 17.332031 0 C 20.925781 0 23.75 -3.015625 23.75 -6.417969 Z M 23.75 -6.417969 "/></g></g></g><g fill="#000000" fill-opacity="1"><g transform="translate(117.430243, 253.374261)"><g><path d="M 20.859375 -12.835938 C 20.859375 -11.070312 19.417969 -9.628906 17.652344 -9.628906 L 4.8125 -9.628906 L 4.8125 -19.253906 L 17.652344 -19.253906 C 19.417969 -19.253906 20.859375 -17.8125 20.859375 -16.046875 Z M 24.070312 -16.046875 C 23.972656 -19.609375 21.085938 -22.464844 17.652344 -22.464844 L 1.605469 -22.464844 L 1.605469 0 L 4.8125 0 L 4.8125 -6.417969 L 17.652344 -6.417969 C 21.246094 -6.417969 24.070312 -9.433594 24.070312 -12.835938 Z M 24.070312 -16.046875 "/></g></g></g><g fill="#000000" fill-opacity="1"><g transform="translate(150.453133, 253.374261)"><g><path d="M 4.8125 -19.253906 L 24.070312 -19.253906 L 24.070312 -22.464844 L 1.605469 -22.464844 L 1.605469 0 L 24.070312 0 L 24.070312 -3.210938 L 4.8125 -3.210938 L 4.8125 -9.628906 L 20.859375 -9.628906 L 20.859375 -12.835938 L 4.8125 -12.835938 Z M 4.8125 -19.253906 "/></g></g></g><g fill="#000000" fill-opacity="1"><g transform="translate(183.476029, 253.374261)"><g><path d="M 7.703125 -22.464844 C 4.109375 -22.367188 1.285156 -19.511719 1.285156 -16.046875 L 1.285156 -6.417969 C 1.285156 -2.792969 4.269531 0 7.703125 0 L 17.332031 0 C 20.925781 0 23.75 -3.015625 23.75 -6.417969 L 20.539062 -6.417969 C 20.539062 -4.652344 19.09375 -3.210938 17.332031 -3.210938 L 7.703125 -3.210938 C 5.9375 -3.210938 4.492188 -4.652344 4.492188 -6.417969 L 4.492188 -16.046875 C 4.492188 -17.8125 5.9375 -19.253906 7.703125 -19.253906 L 17.332031 -19.253906 C 19.09375 -19.253906 20.539062 -17.8125 20.539062 -16.046875 L 23.75 -16.046875 C 23.652344 -19.609375 20.765625 -22.464844 17.332031 -22.464844 Z M 7.703125 -22.464844 "/></g></g></g><g fill="#000000" fill-opacity="1"><g transform="translate(216.178006, 253.374261)"><g><path d="M 22.464844 -19.253906 L 22.464844 -22.464844 L 0 -22.464844 L 0 -19.253906 L 9.628906 -19.253906 L 9.628906 0 L 12.835938 0 L 12.835938 -19.253906 Z M 22.464844 -19.253906 "/></g></g></g><g fill="#000000" fill-opacity="1"><g transform="translate(246.633596, 253.374261)"><g><path d="M 20.859375 -12.835938 C 20.859375 -11.070312 19.417969 -9.628906 17.652344 -9.628906 L 4.8125 -9.628906 L 4.8125 -19.253906 L 17.652344 -19.253906 C 19.417969 -19.253906 20.859375 -17.8125 20.859375 -16.046875 Z M 24.070312 0 L 24.070312 -2.277344 L 19.609375 -6.738281 C 22.273438 -7.636719 24.070312 -10.109375 24.070312 -12.835938 L 24.070312 -16.046875 C 24.070312 -19.609375 21.019531 -22.464844 17.652344 -22.464844 L 1.605469 -22.464844 L 1.605469 0 L 4.8125 0 L 4.8125 -6.417969 L 15.371094 -6.417969 L 21.789062 0 Z M 24.070312 0 "/></g></g></g><g fill="#000000" fill-opacity="1"><g transform="translate(279.977412, 253.374261)"><g><path d="M 20.539062 -6.417969 C 20.539062 -4.652344 19.09375 -3.210938 17.332031 -3.210938 L 7.703125 -3.210938 C 5.9375 -3.210938 4.492188 -4.652344 4.492188 -6.417969 L 4.492188 -16.046875 C 4.492188 -17.8125 5.9375 -19.253906 7.703125 -19.253906 L 17.332031 -19.253906 C 19.09375 -19.253906 20.539062 -17.8125 20.539062 -16.046875 Z M 23.75 -16.046875 C 23.75 -19.542969 20.730469 -22.464844 17.332031 -22.464844 L 7.703125 -22.464844 C 4.171875 -22.464844 1.285156 -19.578125 1.285156 -16.046875 L 1.285156 -6.417969 C 1.285156 -2.855469 4.140625 0 7.703125 0 L 17.332031 0 C 20.859375 0 23.75 -2.886719 23.75 -6.417969 Z M 23.75 -16.046875 "/></g></g></g><g fill="#000000" fill-opacity="1"><g transform="translate(313.000308, 253.374261)"><g><path d="M 24.070312 -22.464844 L 20.859375 -22.464844 L 20.859375 -5.457031 L 4.8125 -22.464844 L 1.605469 -22.464844 L 1.605469 0 L 4.8125 0 L 4.8125 -17.265625 L 20.859375 0 L 24.070312 0 Z M 24.070312 -22.464844 "/></g></g></g></svg>